<mxfile host="app.diagrams.net" agent="Mozilla/5.0 (Windows NT 10.0; Win64; x64) AppleWebKit/537.36 (KHTML, like Gecko) Chrome/128.0.0.0 Safari/537.36 Edg/128.0.0.0" version="24.7.10">
  <diagram name="Página-1" id="EH9jaD34zJfbLtreNjCQ">
    <mxGraphModel dx="281" dy="563" grid="1" gridSize="10" guides="1" tooltips="1" connect="1" arrows="1" fold="1" page="1" pageScale="1" pageWidth="827" pageHeight="1169" math="0" shadow="0">
      <root>
        <mxCell id="0" />
        <mxCell id="1" parent="0" />
        <mxCell id="YtHPKWVG1ntPzPeqZTOq-1" value="Actor" style="shape=umlActor;verticalLabelPosition=bottom;verticalAlign=top;html=1;outlineConnect=0;" vertex="1" parent="1">
          <mxGeometry x="80" y="70" width="80" height="170" as="geometry" />
        </mxCell>
        <mxCell id="YtHPKWVG1ntPzPeqZTOq-2" value="" style="endArrow=classic;html=1;rounded=0;" edge="1" parent="1" source="YtHPKWVG1ntPzPeqZTOq-1" target="YtHPKWVG1ntPzPeqZTOq-3">
          <mxGeometry width="50" height="50" relative="1" as="geometry">
            <mxPoint x="160" y="205" as="sourcePoint" />
            <mxPoint x="230.71067811865476" y="155" as="targetPoint" />
          </mxGeometry>
        </mxCell>
        <mxCell id="YtHPKWVG1ntPzPeqZTOq-3" value="Ingresar credenciales" style="ellipse;whiteSpace=wrap;html=1;" vertex="1" parent="1">
          <mxGeometry x="200.00067811865486" y="115" width="120" height="80" as="geometry" />
        </mxCell>
        <mxCell id="YtHPKWVG1ntPzPeqZTOq-4" value="" style="endArrow=classic;html=1;rounded=0;" edge="1" parent="1" source="YtHPKWVG1ntPzPeqZTOq-3" target="YtHPKWVG1ntPzPeqZTOq-7">
          <mxGeometry relative="1" as="geometry">
            <mxPoint x="320.00067811865483" y="155" as="sourcePoint" />
            <mxPoint x="420.00067811865483" y="155" as="targetPoint" />
          </mxGeometry>
        </mxCell>
        <mxCell id="YtHPKWVG1ntPzPeqZTOq-5" value="Label" style="edgeLabel;resizable=0;html=1;;align=center;verticalAlign=middle;" connectable="0" vertex="1" parent="YtHPKWVG1ntPzPeqZTOq-4">
          <mxGeometry relative="1" as="geometry" />
        </mxCell>
        <mxCell id="YtHPKWVG1ntPzPeqZTOq-6" value="Include&lt;div&gt;&lt;div&gt;&lt;br&gt;&lt;/div&gt;&lt;/div&gt;" style="edgeLabel;html=1;align=center;verticalAlign=middle;resizable=0;points=[];" vertex="1" connectable="0" parent="YtHPKWVG1ntPzPeqZTOq-4">
          <mxGeometry x="-0.004" y="-3" relative="1" as="geometry">
            <mxPoint as="offset" />
          </mxGeometry>
        </mxCell>
        <mxCell id="YtHPKWVG1ntPzPeqZTOq-7" value="Datos ingresados son incorrectos" style="shape=parallelogram;perimeter=parallelogramPerimeter;whiteSpace=wrap;html=1;fixedSize=1;" vertex="1" parent="1">
          <mxGeometry x="400" y="125" width="150" height="65" as="geometry" />
        </mxCell>
        <mxCell id="YtHPKWVG1ntPzPeqZTOq-8" value="" style="endArrow=classic;html=1;rounded=0;entryX=0.5;entryY=0;entryDx=0;entryDy=0;" edge="1" parent="1" source="YtHPKWVG1ntPzPeqZTOq-7" target="YtHPKWVG1ntPzPeqZTOq-10">
          <mxGeometry width="50" height="50" relative="1" as="geometry">
            <mxPoint x="475" y="240" as="sourcePoint" />
            <mxPoint x="475" y="260.71067811865476" as="targetPoint" />
          </mxGeometry>
        </mxCell>
        <mxCell id="YtHPKWVG1ntPzPeqZTOq-9" value="Include" style="edgeLabel;html=1;align=center;verticalAlign=middle;resizable=0;points=[];" vertex="1" connectable="0" parent="YtHPKWVG1ntPzPeqZTOq-8">
          <mxGeometry x="-0.0723" y="-4" relative="1" as="geometry">
            <mxPoint as="offset" />
          </mxGeometry>
        </mxCell>
        <mxCell id="YtHPKWVG1ntPzPeqZTOq-13" style="edgeStyle=orthogonalEdgeStyle;rounded=0;orthogonalLoop=1;jettySize=auto;html=1;exitX=1;exitY=0.5;exitDx=0;exitDy=0;" edge="1" parent="1" source="YtHPKWVG1ntPzPeqZTOq-10" target="YtHPKWVG1ntPzPeqZTOq-15">
          <mxGeometry relative="1" as="geometry">
            <mxPoint x="610" y="290" as="targetPoint" />
          </mxGeometry>
        </mxCell>
        <mxCell id="YtHPKWVG1ntPzPeqZTOq-14" value="Include" style="edgeLabel;html=1;align=center;verticalAlign=middle;resizable=0;points=[];" vertex="1" connectable="0" parent="YtHPKWVG1ntPzPeqZTOq-13">
          <mxGeometry x="-0.1948" y="4" relative="1" as="geometry">
            <mxPoint as="offset" />
          </mxGeometry>
        </mxCell>
        <mxCell id="YtHPKWVG1ntPzPeqZTOq-10" value="Recuperar contraseña" style="ellipse;whiteSpace=wrap;html=1;" vertex="1" parent="1">
          <mxGeometry x="414" y="250" width="120" height="80" as="geometry" />
        </mxCell>
        <mxCell id="YtHPKWVG1ntPzPeqZTOq-16" style="edgeStyle=orthogonalEdgeStyle;rounded=0;orthogonalLoop=1;jettySize=auto;html=1;entryX=0.5;entryY=1;entryDx=0;entryDy=0;" edge="1" parent="1" source="YtHPKWVG1ntPzPeqZTOq-15" target="YtHPKWVG1ntPzPeqZTOq-18">
          <mxGeometry relative="1" as="geometry">
            <mxPoint x="715" y="180" as="targetPoint" />
          </mxGeometry>
        </mxCell>
        <mxCell id="YtHPKWVG1ntPzPeqZTOq-17" value="Extend" style="edgeLabel;html=1;align=center;verticalAlign=middle;resizable=0;points=[];" vertex="1" connectable="0" parent="YtHPKWVG1ntPzPeqZTOq-16">
          <mxGeometry x="-0.051" y="-1" relative="1" as="geometry">
            <mxPoint as="offset" />
          </mxGeometry>
        </mxCell>
        <mxCell id="YtHPKWVG1ntPzPeqZTOq-19" style="edgeStyle=orthogonalEdgeStyle;rounded=0;orthogonalLoop=1;jettySize=auto;html=1;entryX=0.5;entryY=0;entryDx=0;entryDy=0;" edge="1" parent="1" source="YtHPKWVG1ntPzPeqZTOq-15" target="YtHPKWVG1ntPzPeqZTOq-21">
          <mxGeometry relative="1" as="geometry">
            <mxPoint x="715" y="400" as="targetPoint" />
          </mxGeometry>
        </mxCell>
        <mxCell id="YtHPKWVG1ntPzPeqZTOq-20" value="Include" style="edgeLabel;html=1;align=center;verticalAlign=middle;resizable=0;points=[];" vertex="1" connectable="0" parent="YtHPKWVG1ntPzPeqZTOq-19">
          <mxGeometry x="-0.0858" y="-3" relative="1" as="geometry">
            <mxPoint as="offset" />
          </mxGeometry>
        </mxCell>
        <mxCell id="YtHPKWVG1ntPzPeqZTOq-15" value="Ingresar correo" style="shape=parallelogram;perimeter=parallelogramPerimeter;whiteSpace=wrap;html=1;fixedSize=1;" vertex="1" parent="1">
          <mxGeometry x="620" y="260" width="190" height="60" as="geometry" />
        </mxCell>
        <mxCell id="YtHPKWVG1ntPzPeqZTOq-18" value="Dirección de correo no vá&lt;span style=&quot;background-color: initial;&quot;&gt;lida&lt;/span&gt;" style="shape=parallelogram;perimeter=parallelogramPerimeter;whiteSpace=wrap;html=1;fixedSize=1;" vertex="1" parent="1">
          <mxGeometry x="655" y="125" width="120" height="60" as="geometry" />
        </mxCell>
        <mxCell id="YtHPKWVG1ntPzPeqZTOq-21" value="Correo enviado, sigue los pasos de para recuperar la contraseña" style="shape=parallelogram;perimeter=parallelogramPerimeter;whiteSpace=wrap;html=1;fixedSize=1;" vertex="1" parent="1">
          <mxGeometry x="540" y="440" width="270" height="50" as="geometry" />
        </mxCell>
      </root>
    </mxGraphModel>
  </diagram>
</mxfile>
